<?xml version="1.0" encoding="UTF-8"?>
<svg xmlns="http://www.w3.org/2000/svg" viewBox="0 0 1054 440" width="1054" height="440">
<path d="M0.16 0.16C351.39 0.16 702.61 0.16 1053.84 0.16C1053.84 146.8 1053.84 293.45 1053.84 440.1C702.61 440.1 351.39 440.1 0.16 440.1C0.16 293.45 0.16 146.8 0.16 0.16ZM415.88 56.26C406.45 56.68 397.13 58.84 387.71 59.73C377.14 60.74 366.57 61.23 356.01 62.36C344.54 63.59 333.19 66.03 321.76 67.56C288.55 72.01 255.54 77.51 222.43 82.33C209.39 84.23 196.33 86.1 183.38 88.6C173.35 90.54 163.5 93.38 153.49 95.41C140.27 98.09 125.51 100.32 113.64 107.12C108.21 110.24 103.21 114.15 97.92 117.52C90.6 122.19 82.31 126.04 76.64 132.91C72.61 137.79 69.73 143.52 66.55 148.95C59.68 160.69 52.41 172.57 48.78 185.82C45.41 198.11 45.09 210.88 44.51 223.53C43.13 253.53 45.11 274.43 59.12 301.24C62.35 307.42 65.06 314.71 69.35 320.22C75.09 327.59 84.63 330.97 92.7 334.84C104.8 340.62 117.57 344.78 130.89 346.91C139.04 348.21 147.33 348.57 155.47 349.78C189.79 354.91 224.42 355.58 258.97 359.01C265.61 359.67 272.25 360.97 278.89 361.79C295.59 363.85 312.48 365.08 329.26 366.28C340.23 367.06 351.15 368.9 362.19 367.91C366.48 367.52 370.67 365.77 374.79 364.61C382.31 362.5 390.01 360.31 397.65 358.7C409.04 356.3 420.36 353.04 431.86 351.31C443.26 349.58 455.07 348.81 466.25 346C472.95 344.32 486.44 339.69 489.4 332.99C491.83 327.48 484.94 311.75 482.84 305.98C477 289.91 472.09 273.43 467.1 257.1C466.03 253.56 465 249.54 463.6 246.16C462.72 244.04 461.06 242.42 460.5 240.02C460.22 238.82 461.27 237.86 461.6 236.81C462.11 235.21 461.31 232.9 461.1 231.28C459.73 220.9 457.24 207.08 458.9 196.81C459.89 190.63 462.96 184.89 463.83 178.78C464.64 173.05 463.34 167.06 464.64 161.42C468.09 146.39 476.65 138.32 474.62 121.57C472.52 104.15 464.99 83.81 452.87 71.03C449.52 67.49 446.01 62.83 441.56 60.61C433.53 56.59 424.75 55.87 415.88 56.26ZM659.02 56.27C652.64 56.55 646.31 57.73 640.63 60.76C637.67 62.33 635.3 65.08 632.98 67.42C620.88 79.64 614.46 92.35 610.56 109.12C608.18 119.33 605.99 128.9 609.09 139.3C611.34 146.85 616.09 152.64 617.8 160.98C618.97 166.71 617.44 172.73 618.41 178.49C619.41 184.36 622.49 189.79 623.41 195.73C624.94 205.57 622.64 215.62 621.91 225.41C621.65 228.85 620.72 232.68 620.87 236.09C620.93 237.62 622.14 238.63 621.8 240.3C621.32 242.66 619.43 244.34 618.57 246.45C617 250.27 616.05 254.89 614.81 258.89C609.81 275.02 604.82 291.33 599.16 307.25C597.11 313 590.76 327.16 592.91 332.7C595.43 339.2 608.89 344.29 615.29 345.77C636.32 350.64 658.12 351.54 679.03 357.25C688.42 359.82 697.9 361.95 707.3 364.51C712.01 365.79 716.69 367.71 721.63 368.04C732.28 368.74 742.78 367.02 753.35 366.23C769.74 365.01 786.13 363.69 802.47 361.91C809.94 361.09 817.38 359.5 824.86 358.86C858.78 355.95 893.01 355.47 926.58 349.8C930.56 349.13 934.64 349.28 938.64 348.7C956.63 346.1 973.46 342.7 989.78 334.7C997.81 330.76 1007.01 327.7 1012.86 320.44C1017.21 315.03 1019.4 307.8 1022.81 301.8C1037.52 275.95 1039.67 250.99 1037.79 221.68C1036.1 195.42 1034.92 184.41 1022.73 160.91C1015.8 147.55 1008.41 132.57 995.45 124.14C989.92 120.54 984.01 117.45 978.54 113.73C974.29 110.83 970.04 107.28 965.28 105.23C948.76 98.12 929.82 95.27 912.27 91.7C870.09 83.11 827.6 77.39 785 71.13C760.32 67.5 735.69 63.3 710.83 60.62C705.95 60.09 701.02 60.39 696.14 59.9C683.75 58.66 671.5 55.72 659.02 56.27ZM457.36 86.97C451.04 85.45 448.96 76.26 442.43 75.21C441.92 78.05 446.45 80.77 448.34 83.01C452.97 88.5 456.8 94.43 459.43 101.13C461.73 107 462.07 113.3 462.32 119.53C462.43 122.44 461.16 125.75 464.82 126.12C466.24 123.67 465.29 120.48 467.93 118.83C469.6 120.58 468.89 124.59 468.78 127.16C468.44 135.63 464.93 142.57 462.32 150.44C459.26 159.68 459.39 169.32 457.72 178.78C456.82 183.91 453.66 188.51 452.87 193.73C451.79 200.93 453.39 207.73 453.86 214.84C454.29 221.37 452.35 231.57 457.32 236.61C456 238.93 456.43 240.17 457.98 242.17C456.1 248.46 461.05 257.53 463.22 263.37C469.15 279.38 473.83 296.13 478.82 312.45C480.46 317.81 485.85 325.96 483.63 331.62C482.21 335.26 478.72 336.74 475.53 338.41C466.8 342.99 457.69 344.35 448.03 345.66C428.3 348.33 408.17 351.7 388.99 357.01C379.76 359.56 364.79 365.6 355.38 363.79C349.6 362.67 345.43 354.56 343.36 349.67C341.7 345.78 341.33 341.03 340.48 336.91C337.87 324.24 336.73 311.47 334.77 298.7C332.83 286.1 329.2 273.55 328.16 260.86C327.22 249.22 328.92 237.61 328.18 226.03C327.71 218.72 325.98 211.64 325.75 204.27C325.24 187.77 327.17 171.35 330.26 155.15C332.78 141.92 336.41 129.02 341.16 116.39C342.79 112.05 348.48 102.39 348.82 98.53C348.94 97.09 348.35 95.67 348.42 94.21C349.87 93.61 351.63 93.55 352.97 92.72C354.96 91.49 356.37 88.86 357.99 87.18C360.69 84.36 363.73 81.61 366.92 79.33C380.98 69.26 399.36 60.61 416.94 60.13C426.38 59.88 432.19 59.52 439.69 65.54C445.03 69.83 458.83 79.13 457.36 86.97ZM734.59 94.83C732.37 100.62 737.28 105.67 739.17 111.12C744.08 125.28 749.45 139.02 751.91 153.9C754.44 169.26 757.37 184.9 756.92 200.54C756.64 209.74 754.27 218.77 754.01 227.9C753.65 240.37 755.32 252.69 753.81 265.21C752.27 278.01 748.58 290.45 747.1 303.31C745.7 315.44 743.73 327.29 741.4 339.26C739.83 347.31 737.53 356.29 730.9 361.87C724.26 367.46 707.54 360.71 699.88 358.73C686.11 355.19 672.22 351.95 658.21 349.4C646.26 347.23 634.09 346.05 622.16 343.71C615.24 342.35 599.73 338.12 598.3 329.85C597.5 325.17 603.04 313.9 604.73 309.08C609.83 294.58 613.62 279.63 618.59 265.12C621.01 258.05 625.95 249.26 624.63 241.76C626.2 239.98 626.2 238.6 624.97 236.61C629.42 233.01 628.47 220.56 628.87 214.84C629.39 207.24 630.61 199.44 629.13 191.87C628.23 187.24 625.67 183.11 624.63 178.52C623.69 174.41 623.94 170 623.43 165.83C622.76 160.29 621.48 154.4 619.72 149.1C617.12 141.28 614.02 135 613.97 126.54C613.96 123.74 612.99 120.62 615.3 118.63C616.91 121.4 615.36 125.22 619.03 126.21C620.69 124.21 619.98 121.01 620.03 118.46C620.14 113.33 620.8 108.22 622.18 103.27C623.93 97.01 627.77 90.62 631.9 85.63C634.34 82.69 639.52 79.1 640.4 75.55C634 74.3 631.54 85.8 625.74 86.75C623.59 83.34 628.32 78.29 630.72 75.73C634.4 71.81 644.66 62.51 649.51 60.89C652.18 60 655.42 60.28 658.21 60.2C679.48 59.53 701.55 67.96 718.06 81.3C722.1 84.55 725 88.97 728.88 92.27C730.56 93.7 732.83 93.49 734.59 94.83ZM386.53 63.12C385.3 66.17 380.86 66.76 377.92 67.98C372.12 70.39 366.4 73.81 361.29 77.43C348.81 86.26 340.97 99.93 335.55 113.87C330.94 125.73 326.71 137.95 324.29 150.49C323.01 157.16 322.78 164.02 321.62 170.69C319.93 180.44 318.34 190.61 318.47 200.54C318.59 209.23 321.77 217.42 322.26 226.03C322.97 238.45 321.24 250.85 322.36 263.31C323.15 272.05 325.57 280.8 327.04 289.46C328.17 296.21 328.69 303.06 329.83 309.82C331.08 317.18 333.14 324.41 334.56 331.75C335.24 335.24 335.12 338.83 335.82 342.31C336.8 347.1 338.58 351.98 341.34 356.03C343.25 358.84 346.77 361.5 347.29 364.91C341.16 365.9 326.3 363.03 319.31 362.42C303.85 361.08 288.15 360.08 272.79 357.91C262.39 356.45 252.13 354.89 241.58 354.55C210.01 353.55 178.22 350.38 147.06 345.86C126.67 342.9 103.92 339.67 86.38 328.05C66.9 315.13 55.83 290.87 51.92 268.63C47.85 245.48 47.75 223.11 51.84 199.98C53.12 192.76 53.9 185.54 56.36 178.57C59.03 170.97 62.93 164.34 66.89 157.39C71.39 149.48 76.03 140.31 82.61 133.91C88.44 128.23 95.87 124.08 102.67 119.75C110.61 114.68 117.98 108.69 126.93 105.48C143.65 99.48 161.69 97.44 178.97 93.54C219.94 84.28 262.06 78.72 303.74 73.2C321.55 70.84 339.31 68.09 357.12 65.65C365.88 64.45 377.84 61.71 386.53 63.12ZM735.14 364.7C736.04 361.51 738.9 359.48 740.69 356.73C743.23 352.82 745.42 348.41 746.47 343.82C747.76 338.16 747.84 332.04 748.93 326.29C751.63 312.14 754.36 298.21 756.21 283.86C757.46 274.24 759.97 265.05 760.51 255.26C761.01 246.09 759.6 237.04 759.94 227.9C760.27 218.86 763.74 210.28 763.82 201.16C763.91 189.71 762.2 178.28 760.28 167.02C759.19 160.6 759.04 154.02 757.56 147.64C753.83 131.5 748.23 115.54 740.93 100.68C735.5 89.64 726.15 80.04 715.63 73.78C711.38 71.25 697.56 66.17 695.71 63.12C705.14 61.63 717.11 64.83 726.61 65.83C752.26 68.53 777.56 73.58 803.11 76.93C833.85 80.97 864.22 86.1 894.68 91.75C906.59 93.96 918.44 96.39 930.21 99.19C938.72 101.21 947.34 102.52 955.59 105.54C963.37 108.4 969.57 113.21 976.45 117.66C984.26 122.71 992.69 127.34 999.59 133.69C1004.54 138.25 1008.03 144.77 1011.4 150.51C1016.58 159.33 1022.16 167.65 1025.58 177.38C1029.95 189.83 1032.35 204.19 1033.3 217.33C1034.46 233.27 1033.76 249.27 1031.34 265.04C1027.96 287.14 1017.61 312.76 998.72 326.2C981.15 338.69 958.33 342.67 937.38 345.53C924.79 347.25 912.1 349.34 899.47 350.53C877.14 352.63 854.69 353.41 832.32 354.93C824.38 355.47 816.55 357.14 808.68 358.01C793.37 359.69 777.99 360.76 762.67 362.45C756.03 363.19 749.44 363.79 742.77 364.37C740.25 364.59 737.46 365.87 735.14 364.7ZM428.75 80.64C432.88 69.98 413.58 67.98 410.76 77.42C413.22 82.3 424.33 82.81 428.75 80.64ZM671.77 77.42C668.64 68.34 650.56 69.37 653.59 80.53C657.23 83.03 669.54 81.72 671.77 77.42ZM411.96 122.77C413.31 122.81 414.89 123.45 416.23 123.06C420.77 121.72 420.87 114.04 418.45 111.04C413.15 104.48 394.29 106.43 391.4 114.92C387.41 126.61 406.23 130.35 411.96 122.77ZM670.23 122.81C672.05 124.45 673.23 125.95 675.78 126.62C683.33 128.62 694.18 123.44 690.61 114.29C687.39 106.05 668.41 104.6 663.47 111.62C661.38 114.58 662.22 122.02 666.33 123.07C667.71 123.43 668.87 122.79 670.23 122.81ZM264.47 111.62C261.18 107.1 248.37 107.36 249.68 114.38C251.07 121.85 264.3 118.41 264.47 111.62ZM820.62 109C811.02 112.46 827.34 123.93 832.1 116.08C836.21 109.32 824.62 107.56 820.62 109ZM409.38 121.57C405.51 127.23 395.73 121.74 393.93 116.59C395.09 115.42 397.92 112.97 399.57 112.72C403.94 112.06 408.71 117.9 409.38 121.57ZM451.88 115.35C447.87 110.41 436.97 112.34 433.43 117.21C434.79 125.25 450.58 122.78 451.88 115.35ZM649.07 117.21C646.3 113.91 632.05 109.18 630.83 115.52C629.59 121.97 647.82 125.28 649.07 117.21ZM688.45 116.59C686.85 122.03 676.91 126.9 673.02 121.57C674.07 114.09 683.47 109.94 688.45 116.59ZM131.48 113.48C125.35 112.46 110.6 120.19 118.46 127.12C121.31 126.6 124.48 124.24 127.4 125.35C128.92 125.92 130 127.12 131.52 127.74C135.49 124.14 129.58 121.17 127.86 118.46C129.07 116.8 130.27 115.14 131.48 113.48ZM951.09 113.46C952.31 115.13 953.52 116.79 954.74 118.46C952.62 121.56 947.65 123.13 950.31 127.79C952.59 127.5 953.81 125.2 956.08 125.03C958.62 124.84 961.16 126.52 963.52 127.2C973.33 121.49 956.74 112.43 951.09 113.46ZM356.62 118.61C351.37 121.91 349.96 126.04 347.51 131.43C346.54 133.58 345.08 135.5 344.4 137.74C347.26 142 355.64 142.06 358.4 137.74C356.22 135.66 354.05 133.59 351.88 131.52C352.65 127.1 357.45 123.11 356.62 118.61ZM725.99 119.19C725.6 123.68 729.74 127.11 730.41 131.52C728.29 133.59 726.17 135.66 724.06 137.74C726.23 142.4 735.32 141.72 737.9 137.74C736.35 132.6 731.43 120.7 725.99 119.19ZM323.65 124.68C320.93 123.28 319.03 125.11 316.96 126.99C313.14 130.46 310.61 135.14 309.77 140.23C309.42 142.37 309.55 144.35 308.74 146.36C303.75 144.56 306.28 138.88 303.32 135.39C302.29 134.17 300.34 133.17 298.79 132.93C291.02 131.74 291.27 141.03 285.73 143.45C282.77 141.56 280.98 138.08 277.41 137.09C271.68 135.51 257.98 139.47 250.91 139.59C239.49 139.79 228.11 140.54 216.71 140.73C211.11 140.82 205.52 140.24 199.92 140.65C193.03 141.15 186.33 143.54 179.4 143.74C172.81 143.92 166.53 141.53 160.12 140.59C153.26 139.6 145.83 140.25 138.98 141.03C133.97 141.6 129.71 141.84 124.83 140.32C122.58 139.61 120.91 138.36 118.46 138.17C114.83 137.9 111.94 139.58 108.51 139.83C105.65 140.04 102.92 137.91 100.3 139.6C102.17 146.01 111.35 142.46 115.97 142.35C120.31 142.25 124.52 145.39 129.03 145.73C135.63 146.21 142.34 144.45 148.93 144.17C160.51 143.66 171.54 147.42 183.13 146.82C189.09 146.5 194.7 144.36 200.54 144.16C207.17 143.93 213.8 144.39 220.44 144.1C224.79 143.91 229.15 142.95 233.5 142.97C239.25 142.99 244.84 144.28 250.67 143.96C257.88 143.56 264.85 140.69 272.05 140.63C278.79 140.58 281.61 149.86 288.19 149.21C292.17 148.81 293.16 139.85 297.55 138.89C299.5 142.3 308.68 158.99 314.36 151.14C316.35 148.41 313.84 141.88 315.56 138.01C317.42 133.85 324.18 129.18 323.65 124.68ZM773.24 146.29C771.2 138.05 772.64 134.17 765.87 127.4C763.91 125.44 761.65 123.15 758.96 124.68C758.1 129.11 764.75 133.3 766.57 137.25C768.51 141.48 765.87 146.65 767.66 150.5C769.01 153.4 772.31 152.92 774.58 151.85C780.78 148.94 780.92 142.69 785.06 138.97C789.32 139.95 790.4 147.16 794.39 149.37C800.03 147.73 803.65 141.59 807.58 140.78C811.68 139.93 815.53 141.37 819.45 142.12C825.77 143.32 832.08 144.12 838.53 143.99C841.87 143.92 845.14 143.04 848.49 143.01C853.46 142.97 858.43 143.97 863.41 144.13C869.61 144.34 875.89 143.74 882.06 144.11C885.03 144.29 887.41 145.35 890.24 145.91C894.21 146.69 898.54 146.84 902.58 146.88C913.12 147 923.08 143.52 933.68 144.14C940.45 144.53 947.4 146.28 954.2 145.62C958.27 145.22 962.08 142.33 966.01 142.35C970.97 142.37 979.85 146.09 982.18 139.6C979.34 138.34 977.05 139.91 974.09 139.78C970.93 139.64 968.06 137.95 964.77 138.07C960.4 138.24 956.68 141.08 952.31 141.61C944.82 142.51 934.87 140.06 926.84 140.24C920.12 140.39 913.63 142.83 906.94 143.51C897.94 144.42 889.15 141.06 880.2 140.61C862.42 139.71 844.51 140.42 826.72 139.49C819.81 139.13 812.03 135.26 805.16 137.08C801.32 138.1 799.79 142.04 796.25 143.36C791.17 140.12 790.33 130.25 782.12 133.31C776.27 135.49 778.4 146.87 773.24 146.29ZM412.63 143.83C408 144.58 400.38 149.01 404.76 154.58C409.53 160.63 425.81 162.16 430.15 154.98C435.27 146.53 417.63 143.02 412.63 143.83ZM663.33 143.88C661.24 144.24 659.62 144.81 657.7 145.64C653.23 147.57 648.46 153.15 654.21 156.95C660.49 161.09 672.43 161.16 677.45 154.81C684.11 146.39 668.84 142.93 663.33 143.88ZM371.74 150.8C367.2 151.26 357.33 157.91 363.59 162.79C368.18 166.38 381.2 165.67 382.81 158.7C383.99 153.57 375.61 150.4 371.74 150.8ZM709.34 150.77C705 151.09 697.05 154.94 700.47 160.48C703.78 165.85 714.85 166.27 719.22 162.37C725.06 157.16 713.92 150.44 709.34 150.77ZM419.69 154.52C416.99 157.92 411.8 156.24 410.27 152.66C413.59 150.24 417.3 151.58 419.69 154.52ZM672.1 152.66C670.95 156.44 665.19 157.87 662.77 154.52C664.96 151.77 669.13 149.94 672.1 152.66ZM129.03 169.14C124.12 167.8 108.21 185.89 116.59 188.61C121.92 184.05 126.73 176.43 133.38 173.99C135.94 178.59 126.52 182.16 129.29 188.73C133.1 189.21 149.92 177.56 149.42 188.1C149.31 190.45 147.31 191.87 147.06 194.06C151.37 196.18 156.97 186.72 152.4 182.45C148.05 178.38 141.78 182.73 137.03 181.88C136.91 177.78 142.04 173.74 139.6 169.64C135.28 168.89 132.12 174.2 128.01 173.18C128.35 171.83 128.69 170.49 129.03 169.14ZM967.25 188.36C971.48 183.58 959.43 169.18 953.91 168.83C953.14 170.53 953.82 171.47 954.57 173.18C950.31 173.96 947.24 169.49 942.91 169.45C940.22 173.85 945.56 177.54 945.54 181.88C940.8 182.86 935.18 178.69 930.42 182.06C925.28 185.7 929.56 194.4 934.92 194.42C935.43 191.66 932.51 189.9 932.95 186.94C934.15 178.72 948.59 188.33 952.33 189.1C957.37 183.91 947.38 179.33 948.6 174.29C955.82 174.24 960.34 188.02 967.25 188.36ZM209.25 183.43C212.4 184.52 226.28 181.64 223.4 176.14C220.27 170.18 207.83 173.41 209.25 183.43ZM872.74 183.95C876.62 173.36 860.27 169.33 858.48 178.15C860.45 182.54 868.3 183.71 872.74 183.95ZM388.57 187.48C387.47 178.99 371.21 181.54 374.23 192.46C378.29 193.48 386.32 191.23 388.57 187.48ZM708.56 192.46C710.48 182.74 697.17 179.04 694.35 185.38C691.85 191.02 705.22 193.22 708.56 192.46ZM254.06 189.19C252.9 189.45 251.77 190.14 250.69 190.64C238.65 196.26 258.18 204.96 263.96 198.36C269.62 191.88 258.97 188.11 254.06 189.19ZM835.8 195.57C834.16 187.99 817.77 186.02 817.21 194.33C816.59 203.59 832.2 201.46 835.8 195.57ZM261.15 195.57C258.86 199.25 254.29 198.64 251.53 195.73C252.22 190.76 259.78 191.49 261.15 195.57ZM830.86 195.57C828.31 198.61 823.39 199.4 821.25 195.57C822.73 191.19 829.47 191.04 830.86 195.57ZM417.69 198.55C401.01 203.77 423.37 216.02 429.35 206.42C433.67 199.47 422.05 197.19 417.69 198.55ZM656.53 198.63C652.79 200.03 651 204.49 654 207.55C657.38 211 668.28 210.64 670.49 205.65C673.31 199.26 660.39 197.18 656.53 198.63ZM425.93 204.27C423.81 208.59 419.36 207.47 416.2 204.89C416.88 199.88 423.97 200.39 425.93 204.27ZM666.35 204.27C664.5 208.13 659.22 208 656.77 204.89C657.62 200.21 664.54 200.01 666.35 204.27ZM192.46 213.17C189.69 221.49 199.7 225.14 206.44 223.54C208.73 223 212.01 222.48 212.68 219.78C214.91 210.92 197.28 211.4 192.46 213.17ZM889.59 212.98C885.14 211.68 866.3 211.13 869.7 220.05C872.43 227.19 895.78 224.15 889.59 212.98ZM126.72 213.54C119.02 215.75 123.85 226.36 130.54 224.13C138.57 221.45 134.41 211.33 126.72 213.54ZM951.78 213.43C944.13 215.31 947.78 225.83 954.68 224.25C962.96 222.35 959.8 211.46 951.78 213.43ZM244.36 226.03C247.04 230 260.99 232.26 260.65 225.41C260.32 218.75 245.13 219.19 244.36 226.03ZM837.97 226.03C837.51 218.99 822.01 219 821.66 225.44C821.3 232.01 835.58 230.21 837.97 226.03ZM358.63 221.59C355.28 222.58 356.22 227.31 357.95 229.37C361.25 233.31 375.21 234.56 377.39 229.04C380.62 220.88 362.79 220.36 358.63 221.59ZM712.99 221.58C709.07 222.11 701 226 706.56 230.84C710.99 234.7 722.92 233.37 725.52 227.75C729.21 219.78 717.42 220.99 712.99 221.58ZM81.82 227.8C78.44 228.23 76.04 232.15 78.73 235C81.6 238.05 90.29 238.79 92.74 234.81C96.15 229.27 84.88 227.42 81.82 227.8ZM989.09 232.87C991.03 239.43 1004.67 238.58 1005.18 232.25C1005.75 225.23 992.11 227.06 989.09 232.87ZM408.73 234.74C411.54 238.6 425.31 241.86 425.36 234.74C425.41 227.66 411.23 228.67 408.73 234.74ZM673.74 234.74C671.29 228.7 657.09 227.54 657.21 234.74C657.33 242.01 670.74 238.41 673.74 234.74ZM397.32 252.77C396.15 246.72 385.06 247.23 383.51 252.77C386.19 256.84 394.95 257.4 397.32 252.77ZM698.65 253.4C698.69 247 688.93 247.96 685.42 250.91C684.44 257.92 695.13 256.63 698.65 253.4ZM266.5 258.17C262.74 259.16 258.03 263.46 261.42 267.45C264.84 271.46 275.9 271.25 279.01 266.89C284.19 259.62 270.87 257.01 266.5 258.17ZM808.22 258.29C803.42 259.66 800.01 264.97 805.12 268.45C808.28 270.6 812.98 270.39 816.49 269.58C818.27 269.18 819.93 268.88 821.07 267.32C826.52 259.83 812.9 256.94 808.22 258.29ZM168.27 259.99C165.02 261.14 166.51 266.22 168.2 268.02C171.67 271.72 185.37 273.12 187.45 267.38C190.42 259.24 172.4 258.54 168.27 259.99ZM234.12 264.48C232.64 258.24 221.7 258.69 219.98 264.59C223.62 267.9 231.07 269.18 234.12 264.48ZM862.39 264.59C860.97 258.67 849.41 258.15 848.47 264.59C851.55 268.82 858.93 268.18 862.39 264.59ZM915.56 260.86C911.48 258.19 892.48 258.64 895.13 267.37C896.08 270.5 900.5 271.03 903.21 271.13C909.62 271.36 917.74 268.91 915.56 260.86ZM275.18 262.72C275.82 267.9 268.16 268.91 265.11 265.83C265.26 260.41 271.55 259.4 275.18 262.72ZM816.96 266.45C813.24 267.96 806.57 268.13 807.26 262.72C811.23 259.59 817.94 260.33 816.96 266.45ZM433.82 267.06C430.09 267.16 422.25 270.68 425.42 275.66C428.43 280.41 439.16 280.31 442.94 276.61C449.16 270.51 438.4 266.94 433.82 267.06ZM645.96 267.07C641.7 267.28 635.13 271.04 638.94 276.08C642.09 280.27 653.9 280.63 656.84 275.99C661.09 269.25 650.13 266.85 645.96 267.07ZM440 272.67C439.41 277.29 433.83 276.85 430.32 275.78C428.28 269.23 437.74 267.31 440 272.67ZM652.12 275.78C648.36 277.14 641.76 277.17 642.66 271.73C646.54 268.67 654.22 269.37 652.12 275.78ZM124.76 273.14C116.72 275.28 121.57 286.32 128.66 283.8C136.28 281.09 132.01 271.22 124.76 273.14ZM954.25 273.09C946.33 275.02 949.83 285.67 957.12 283.91C965.28 281.95 961.96 271.22 954.25 273.09ZM363.54 274.92C360.99 275.9 360.86 281.35 361.71 283.41C363.42 287.58 372.85 288.6 375.53 285.02C380.47 278.4 368.49 273.02 363.54 274.92ZM719.77 275.37C714.63 273.28 701.62 277.66 707.12 284.99C709.68 288.42 718.1 287.72 720.23 284.01C721.56 281.69 720.89 277.63 719.77 275.37ZM91.04 292.57C88.82 287.81 76.11 284.45 75.32 291.35C74.54 298.12 89.15 299.51 91.04 292.57ZM999.12 287.56C995.01 287.97 987.66 293.08 994.21 296.36C1005.07 301.8 1013.74 286.12 999.12 287.56ZM230.68 303.76C229.51 297.25 218.35 298.07 216.44 303.76C220.39 307.12 227.2 308.17 230.68 303.76ZM865.93 303.76C864.38 298.26 854.53 297.46 851.99 302.52C852.75 308.82 862.56 307.1 865.93 303.76ZM405.93 305.63C407.03 298.25 393.44 298.51 392.29 305.01C395.11 309.57 402.13 308.31 405.93 305.63ZM690.18 305.01C689.04 298.56 679.1 298.99 676.09 303.76C677.2 309.42 687.38 309.01 690.18 305.01ZM258.99 314.33C261.33 318.64 275.52 320.24 275.29 313.73C275.06 307.49 259.24 307.47 258.99 314.33ZM823.43 314.33C822.6 307.44 807.48 307.5 807.14 313.71C806.77 320.45 820.76 318.44 823.43 314.33ZM163.42 309.97C155.15 310.66 157.57 322.09 165.1 321.04C173.12 319.91 171.31 309.31 163.42 309.97ZM917.66 309.96C909.52 310.53 911.12 321.92 918.75 321.06C926.63 320.17 925.62 309.41 917.66 309.96ZM349.16 341.63C346.24 342.5 347.47 345.52 348.13 347.93C349.51 353 354.43 357.33 359.53 358.45C373.05 361.4 393.17 350.97 406.99 349.45C413.91 348.68 426.44 349.1 431.61 344.8C429.44 342.86 425.91 343.93 423.15 344.41C417.24 345.43 411.08 346.2 405.12 346.91C393.43 348.3 382.38 353.2 370.74 354.78C366.34 355.38 361.62 356.6 357.48 354.18C352.59 351.32 352.67 345.22 349.16 341.63ZM734.69 341.62C731.18 342 731.06 346.5 729.48 349.24C727.13 353.3 723.27 355.7 718.52 355.8C713.76 355.89 708.83 354.08 704.25 353.04C691.91 350.21 679.63 346.22 666.91 345.33C662.63 345.03 654.11 342.09 650.74 344.8C655.68 348.77 668.88 348.61 675.62 349.46C690.2 351.29 704.16 359.31 719.15 358.8C726.61 358.55 738.41 350.28 734.69 341.62ZM511.45 359.64C509.32 355.1 499.59 354.75 498.82 360.35C501.1 364.56 509.04 363.01 511.45 359.64ZM583.91 359.73C581.51 355.6 572.73 354.39 571.09 359.73C573.75 363.52 581.69 364.26 583.91 359.73ZM557.76 364.7C556.03 359.85 547.14 360.51 544.97 364.7C547.16 369.71 554.97 368.52 557.76 364.7ZM459.88 368.43C461.7 374.8 477.24 372.55 476.64 367.29C475.84 360.13 462.28 363.65 459.88 368.43ZM621.84 370.3C624.19 363.69 609.23 360.23 605.62 367.19C607.05 373.11 617.91 373.82 621.84 370.3ZM533.37 381.49C536.57 387.16 551.01 385.49 550.21 379.69C549.2 372.5 535.65 376.6 533.37 381.49ZM424.14 377.76C421.21 386.31 431.06 388.67 437.46 388.17C440 387.97 444.03 386.92 444.66 383.96C446.42 375.77 428.19 375.28 424.14 377.76ZM658.34 377.76C654.01 375.43 636.36 375.59 637.94 383.95C638.51 387.03 642.57 388.03 645.15 388.2C651.5 388.61 661.32 386.18 658.34 377.76ZM596.02 383.62C591.82 379.47 581.99 380.38 579.82 386.47C581.83 392.83 597.83 391.31 596.02 383.62ZM503.46 386.4C495.47 387.41 498.58 398.74 505.84 397.39C513.95 395.88 511.28 385.42 503.46 386.4ZM320.04 392.68C316.64 389.24 306.57 388 306.01 394.55C309.49 397.68 319.71 399.27 320.04 392.68ZM382.25 390.14C374.21 391.38 378 402.86 385.19 401.07C393.1 399.11 389.83 388.97 382.25 390.14ZM697.51 390.13C689.33 391.38 692.48 402.69 699.85 401.08C707.81 399.33 705.36 388.93 697.51 390.13ZM776.35 394.11C775.98 387.6 765.43 389.83 762.4 392.68C763 398.87 773.72 398.41 776.35 394.11ZM550.67 391.43C542.68 391.76 543.74 402.55 551.25 402.55C559.19 402.55 558.9 391.09 550.67 391.43ZM469.83 392.68C461.37 392.52 462.22 404.23 470.41 403.73C478.12 403.25 477.43 392.84 469.83 392.68ZM613.37 392.68C605.8 391.89 603.7 402.83 611.57 403.69C619.2 404.53 621.58 393.55 613.37 392.68ZM422.16 413.83C419.68 408.7 410.64 408.83 408 413.83C410.02 418.68 420.14 418.84 422.16 413.83ZM674.17 414.45C673.11 408.26 658.61 408.5 661.13 415.69C664.58 418 671.7 418.31 674.17 414.45Z" fill="#fefefe" fill-rule="evenodd" stroke="#fefefe" stroke-width="0.25" stroke-linejoin="round"/>
<path d="M415.88 56.26C424.75 55.87 433.53 56.59 441.56 60.61C446.01 62.83 449.52 67.49 452.87 71.03C464.99 83.81 472.52 104.15 474.62 121.57C476.65 138.32 468.09 146.39 464.64 161.42C463.34 167.06 464.64 173.05 463.83 178.78C462.96 184.89 459.89 190.63 458.9 196.81C457.24 207.08 459.73 220.9 461.1 231.28C461.31 232.9 462.11 235.21 461.6 236.81C461.27 237.86 460.22 238.82 460.5 240.02C461.06 242.42 462.72 244.04 463.6 246.16C465 249.54 466.03 253.56 467.1 257.1C472.09 273.43 477 289.91 482.84 305.98C484.94 311.75 491.83 327.48 489.4 332.99C486.44 339.69 472.95 344.32 466.25 346C455.07 348.81 443.26 349.58 431.86 351.31C420.36 353.04 409.04 356.3 397.65 358.7C390.01 360.31 382.31 362.5 374.79 364.61C370.67 365.77 366.48 367.52 362.19 367.91C351.15 368.9 340.23 367.06 329.26 366.28C312.48 365.08 295.59 363.85 278.89 361.79C272.25 360.97 265.61 359.67 258.97 359.01C224.42 355.58 189.79 354.91 155.47 349.78C147.33 348.57 139.04 348.21 130.89 346.91C117.57 344.78 104.8 340.62 92.7 334.84C84.63 330.97 75.09 327.59 69.35 320.22C65.06 314.71 62.35 307.42 59.12 301.24C45.11 274.43 43.13 253.53 44.51 223.53C45.09 210.88 45.41 198.11 48.78 185.82C52.41 172.57 59.68 160.69 66.55 148.95C69.73 143.52 72.61 137.79 76.64 132.91C82.31 126.04 90.6 122.19 97.92 117.52C103.21 114.15 108.21 110.24 113.64 107.12C125.51 100.32 140.27 98.09 153.49 95.41C163.5 93.38 173.35 90.54 183.38 88.6C196.33 86.1 209.39 84.23 222.43 82.33C255.54 77.51 288.55 72.01 321.76 67.56C333.19 66.03 344.54 63.59 356.01 62.36C366.57 61.23 377.14 60.74 387.71 59.73C397.13 58.84 406.45 56.68 415.88 56.26ZM659.02 56.27C671.5 55.72 683.75 58.66 696.14 59.9C701.02 60.39 705.95 60.09 710.83 60.62C735.69 63.3 760.32 67.5 785 71.13C827.6 77.39 870.09 83.11 912.27 91.7C929.82 95.27 948.76 98.12 965.28 105.23C970.04 107.28 974.29 110.83 978.54 113.73C984.01 117.45 989.92 120.54 995.45 124.14C1008.41 132.57 1015.8 147.55 1022.73 160.91C1034.92 184.41 1036.1 195.42 1037.79 221.68C1039.67 250.99 1037.52 275.95 1022.81 301.8C1019.4 307.8 1017.21 315.03 1012.86 320.44C1007.01 327.7 997.81 330.76 989.78 334.7C973.46 342.7 956.63 346.1 938.64 348.7C934.64 349.28 930.56 349.13 926.58 349.8C893.01 355.47 858.78 355.95 824.86 358.86C817.38 359.5 809.94 361.09 802.47 361.91C786.13 363.69 769.74 365.01 753.35 366.23C742.78 367.02 732.28 368.74 721.63 368.04C716.69 367.71 712.01 365.79 707.3 364.51C697.9 361.95 688.42 359.82 679.03 357.25C658.12 351.54 636.32 350.64 615.29 345.77C608.89 344.29 595.43 339.2 592.91 332.7C590.76 327.16 597.11 313 599.16 307.25C604.82 291.33 609.81 275.02 614.81 258.89C616.05 254.89 617 250.27 618.57 246.45C619.43 244.34 621.32 242.66 621.8 240.3C622.14 238.63 620.93 237.62 620.87 236.09C620.72 232.68 621.65 228.85 621.91 225.41C622.64 215.62 624.94 205.57 623.41 195.73C622.49 189.79 619.41 184.36 618.41 178.49C617.44 172.73 618.97 166.71 617.8 160.98C616.09 152.64 611.34 146.85 609.09 139.3C605.99 128.9 608.18 119.33 610.56 109.12C614.46 92.35 620.88 79.64 632.98 67.42C635.3 65.08 637.67 62.33 640.63 60.76C646.31 57.73 652.64 56.55 659.02 56.27ZM457.36 86.97C458.83 79.13 445.03 69.83 439.69 65.54C432.19 59.52 426.38 59.88 416.94 60.13C399.36 60.61 380.98 69.26 366.92 79.33C363.73 81.61 360.69 84.36 357.99 87.18C356.37 88.86 354.96 91.49 352.97 92.72C351.63 93.55 349.87 93.61 348.42 94.21C348.35 95.67 348.94 97.09 348.82 98.53C348.48 102.39 342.79 112.05 341.16 116.39C336.41 129.02 332.78 141.92 330.26 155.15C327.17 171.35 325.24 187.77 325.75 204.27C325.98 211.64 327.71 218.72 328.18 226.03C328.92 237.61 327.22 249.22 328.16 260.86C329.2 273.55 332.83 286.1 334.77 298.7C336.73 311.47 337.87 324.24 340.48 336.91C341.33 341.03 341.7 345.78 343.36 349.67C345.43 354.56 349.6 362.67 355.38 363.79C364.79 365.6 379.76 359.56 388.99 357.01C408.17 351.7 428.3 348.33 448.03 345.66C457.69 344.35 466.8 342.99 475.53 338.41C478.72 336.74 482.21 335.26 483.63 331.62C485.85 325.96 480.46 317.81 478.82 312.45C473.83 296.13 469.15 279.38 463.22 263.37C461.05 257.53 456.1 248.46 457.98 242.17C456.43 240.17 456 238.93 457.32 236.61C452.35 231.57 454.29 221.37 453.86 214.84C453.39 207.73 451.79 200.93 452.87 193.73C453.66 188.51 456.82 183.91 457.72 178.78C459.39 169.32 459.26 159.68 462.32 150.44C464.93 142.57 468.44 135.63 468.78 127.16C468.89 124.59 469.6 120.58 467.93 118.83C465.29 120.48 466.24 123.67 464.82 126.12C461.16 125.75 462.43 122.44 462.32 119.53C462.07 113.3 461.73 107 459.43 101.13C456.8 94.43 452.97 88.5 448.34 83.01C446.45 80.77 441.92 78.05 442.43 75.21C448.96 76.26 451.04 85.45 457.36 86.97ZM734.59 94.83C732.83 93.49 730.56 93.7 728.88 92.27C725 88.97 722.1 84.55 718.06 81.3C701.55 67.96 679.48 59.53 658.21 60.2C655.42 60.28 652.18 60 649.51 60.89C644.66 62.51 634.4 71.81 630.72 75.73C628.32 78.29 623.59 83.34 625.74 86.75C631.54 85.8 634 74.3 640.4 75.55C639.52 79.1 634.34 82.69 631.9 85.63C627.77 90.62 623.93 97.01 622.18 103.27C620.8 108.22 620.14 113.33 620.03 118.46C619.98 121.01 620.69 124.21 619.03 126.21C615.36 125.22 616.91 121.4 615.3 118.63C612.99 120.62 613.96 123.74 613.97 126.54C614.02 135 617.12 141.28 619.72 149.1C621.48 154.4 622.76 160.29 623.43 165.83C623.94 170 623.69 174.41 624.63 178.52C625.67 183.11 628.23 187.24 629.13 191.87C630.61 199.44 629.39 207.24 628.87 214.84C628.47 220.56 629.42 233.01 624.97 236.61C626.2 238.6 626.2 239.98 624.63 241.76C625.95 249.26 621.01 258.05 618.59 265.12C613.62 279.63 609.83 294.58 604.73 309.08C603.04 313.9 597.5 325.17 598.3 329.85C599.73 338.12 615.24 342.35 622.16 343.71C634.09 346.05 646.26 347.23 658.21 349.4C672.22 351.95 686.11 355.19 699.88 358.73C707.54 360.71 724.26 367.46 730.9 361.87C737.53 356.29 739.83 347.31 741.4 339.26C743.73 327.29 745.7 315.44 747.1 303.31C748.58 290.45 752.27 278.01 753.81 265.21C755.32 252.69 753.65 240.37 754.01 227.9C754.27 218.77 756.64 209.74 756.92 200.54C757.37 184.9 754.44 169.26 751.91 153.9C749.45 139.02 744.08 125.28 739.17 111.12C737.28 105.67 732.37 100.62 734.59 94.83ZM386.53 63.12C377.84 61.71 365.88 64.45 357.12 65.65C339.31 68.09 321.55 70.84 303.74 73.2C262.06 78.72 219.94 84.28 178.97 93.54C161.69 97.44 143.65 99.48 126.93 105.48C117.98 108.69 110.61 114.68 102.67 119.75C95.87 124.08 88.44 128.23 82.61 133.91C76.03 140.31 71.39 149.48 66.89 157.39C62.93 164.34 59.03 170.97 56.36 178.57C53.9 185.54 53.12 192.76 51.84 199.98C47.75 223.11 47.85 245.48 51.92 268.63C55.83 290.87 66.9 315.13 86.38 328.05C103.92 339.67 126.67 342.9 147.06 345.86C178.22 350.38 210.01 353.55 241.58 354.55C252.13 354.89 262.39 356.45 272.79 357.91C288.15 360.08 303.85 361.08 319.31 362.42C326.3 363.03 341.16 365.9 347.29 364.91C346.77 361.5 343.25 358.84 341.34 356.03C338.58 351.98 336.8 347.1 335.82 342.31C335.12 338.83 335.24 335.24 334.56 331.75C333.14 324.41 331.08 317.18 329.83 309.82C328.69 303.06 328.17 296.21 327.04 289.46C325.57 280.8 323.15 272.05 322.36 263.31C321.24 250.85 322.97 238.45 322.26 226.03C321.77 217.42 318.59 209.23 318.47 200.54C318.34 190.61 319.93 180.44 321.62 170.69C322.78 164.02 323.01 157.16 324.29 150.49C326.71 137.95 330.94 125.73 335.55 113.87C340.97 99.93 348.81 86.26 361.29 77.43C366.4 73.81 372.12 70.39 377.92 67.98C380.86 66.76 385.3 66.17 386.53 63.12ZM735.14 364.7C737.46 365.87 740.25 364.59 742.77 364.37C749.44 363.79 756.03 363.19 762.67 362.45C777.99 360.76 793.37 359.69 808.68 358.01C816.55 357.14 824.38 355.47 832.32 354.93C854.69 353.41 877.14 352.63 899.47 350.53C912.1 349.34 924.79 347.25 937.38 345.53C958.33 342.67 981.15 338.69 998.72 326.2C1017.61 312.76 1027.96 287.14 1031.34 265.04C1033.76 249.27 1034.46 233.27 1033.3 217.33C1032.35 204.19 1029.95 189.83 1025.58 177.38C1022.16 167.65 1016.58 159.33 1011.4 150.51C1008.03 144.77 1004.54 138.25 999.59 133.69C992.69 127.34 984.26 122.71 976.45 117.66C969.57 113.21 963.37 108.4 955.59 105.54C947.34 102.52 938.72 101.21 930.21 99.19C918.44 96.39 906.59 93.96 894.68 91.75C864.22 86.1 833.85 80.97 803.11 76.93C777.56 73.58 752.26 68.53 726.61 65.83C717.11 64.83 705.14 61.63 695.71 63.12C697.56 66.17 711.38 71.25 715.63 73.78C726.15 80.04 735.5 89.64 740.93 100.68C748.23 115.54 753.83 131.5 757.56 147.64C759.04 154.02 759.19 160.6 760.28 167.02C762.2 178.28 763.91 189.71 763.82 201.16C763.74 210.28 760.27 218.86 759.94 227.9C759.6 237.04 761.01 246.09 760.51 255.26C759.97 265.05 757.46 274.24 756.21 283.86C754.36 298.21 751.63 312.14 748.93 326.29C747.84 332.04 747.76 338.16 746.47 343.82C745.42 348.41 743.23 352.82 740.69 356.73C738.9 359.48 736.04 361.51 735.14 364.7ZM428.75 80.64C424.33 82.81 413.22 82.3 410.76 77.42C413.58 67.98 432.88 69.98 428.75 80.64ZM671.77 77.42C669.54 81.72 657.23 83.03 653.59 80.53C650.56 69.37 668.64 68.34 671.77 77.42ZM411.96 122.77C406.23 130.35 387.41 126.61 391.4 114.92C394.29 106.43 413.15 104.48 418.45 111.04C420.87 114.04 420.77 121.72 416.23 123.06C414.89 123.45 413.31 122.81 411.96 122.77ZM670.23 122.81C668.87 122.79 667.71 123.43 666.33 123.07C662.22 122.02 661.38 114.58 663.47 111.62C668.41 104.6 687.39 106.05 690.61 114.29C694.18 123.44 683.33 128.62 675.78 126.62C673.23 125.95 672.05 124.45 670.23 122.81ZM264.47 111.62C264.3 118.41 251.07 121.85 249.68 114.38C248.37 107.36 261.18 107.1 264.47 111.62ZM820.62 109C824.62 107.56 836.21 109.32 832.1 116.08C827.34 123.93 811.02 112.46 820.62 109ZM409.38 121.57C408.71 117.9 403.94 112.06 399.57 112.72C397.92 112.97 395.09 115.42 393.93 116.59C395.73 121.74 405.51 127.23 409.38 121.57ZM451.88 115.35C450.58 122.78 434.79 125.25 433.43 117.21C436.97 112.34 447.87 110.41 451.88 115.35ZM649.07 117.21C647.82 125.28 629.59 121.97 630.83 115.52C632.05 109.18 646.3 113.91 649.07 117.21ZM688.45 116.59C683.47 109.94 674.07 114.09 673.02 121.57C676.91 126.9 686.85 122.03 688.45 116.59ZM131.48 113.48C130.27 115.14 129.07 116.8 127.86 118.46C129.58 121.17 135.49 124.14 131.52 127.74C130 127.12 128.92 125.92 127.4 125.35C124.48 124.24 121.31 126.6 118.46 127.12C110.6 120.19 125.35 112.46 131.48 113.48ZM951.09 113.46C956.74 112.43 973.33 121.49 963.52 127.2C961.16 126.52 958.62 124.84 956.08 125.03C953.81 125.2 952.59 127.5 950.31 127.79C947.65 123.13 952.62 121.56 954.74 118.46C953.52 116.79 952.31 115.13 951.09 113.46ZM356.62 118.61C357.45 123.11 352.65 127.1 351.88 131.52C354.05 133.59 356.22 135.66 358.4 137.74C355.64 142.06 347.26 142 344.4 137.74C345.08 135.5 346.54 133.58 347.51 131.43C349.96 126.04 351.37 121.91 356.62 118.61ZM725.99 119.19C731.43 120.7 736.35 132.6 737.9 137.74C735.32 141.72 726.23 142.4 724.06 137.74C726.17 135.66 728.29 133.59 730.41 131.52C729.74 127.11 725.6 123.68 725.99 119.19ZM323.65 124.68C324.18 129.18 317.42 133.85 315.56 138.01C313.84 141.88 316.35 148.41 314.36 151.14C308.68 158.99 299.5 142.3 297.55 138.89C293.16 139.85 292.17 148.81 288.19 149.21C281.61 149.86 278.79 140.58 272.05 140.63C264.85 140.69 257.88 143.56 250.67 143.96C244.84 144.28 239.25 142.99 233.5 142.97C229.15 142.95 224.79 143.91 220.44 144.1C213.8 144.39 207.17 143.93 200.54 144.16C194.7 144.36 189.09 146.5 183.13 146.82C171.54 147.42 160.51 143.66 148.93 144.17C142.34 144.45 135.63 146.21 129.03 145.73C124.52 145.39 120.31 142.25 115.97 142.35C111.35 142.46 102.17 146.01 100.3 139.6C102.92 137.91 105.65 140.04 108.51 139.83C111.94 139.58 114.83 137.9 118.46 138.17C120.91 138.36 122.58 139.61 124.83 140.32C129.71 141.84 133.97 141.6 138.98 141.03C145.83 140.25 153.26 139.6 160.12 140.59C166.53 141.53 172.81 143.92 179.4 143.74C186.33 143.54 193.03 141.15 199.92 140.65C205.52 140.24 211.11 140.82 216.71 140.73C228.11 140.54 239.49 139.79 250.91 139.59C257.98 139.47 271.68 135.51 277.41 137.09C280.98 138.08 282.77 141.56 285.73 143.45C291.27 141.03 291.02 131.74 298.79 132.93C300.34 133.17 302.29 134.17 303.32 135.39C306.28 138.88 303.75 144.56 308.74 146.36C309.55 144.35 309.42 142.37 309.77 140.23C310.61 135.14 313.14 130.46 316.96 126.99C319.03 125.11 320.93 123.28 323.65 124.68ZM773.24 146.29C778.4 146.87 776.27 135.49 782.12 133.31C790.33 130.25 791.17 140.12 796.25 143.36C799.79 142.04 801.32 138.1 805.16 137.08C812.03 135.26 819.81 139.13 826.72 139.49C844.51 140.42 862.42 139.71 880.2 140.61C889.15 141.06 897.94 144.42 906.94 143.51C913.63 142.83 920.12 140.39 926.84 140.24C934.87 140.06 944.82 142.51 952.31 141.61C956.68 141.08 960.4 138.24 964.77 138.07C968.06 137.95 970.93 139.64 974.09 139.78C977.05 139.91 979.34 138.34 982.18 139.6C979.85 146.09 970.97 142.37 966.01 142.35C962.08 142.33 958.27 145.22 954.2 145.62C947.4 146.28 940.45 144.53 933.68 144.14C923.08 143.52 913.12 147 902.58 146.88C898.54 146.84 894.21 146.69 890.24 145.91C887.41 145.35 885.03 144.29 882.06 144.11C875.89 143.74 869.61 144.34 863.41 144.13C858.43 143.97 853.46 142.97 848.49 143.01C845.14 143.04 841.87 143.92 838.53 143.99C832.08 144.12 825.77 143.32 819.45 142.12C815.53 141.37 811.68 139.93 807.58 140.78C803.65 141.59 800.03 147.73 794.39 149.37C790.4 147.16 789.32 139.95 785.06 138.97C780.92 142.69 780.78 148.94 774.58 151.85C772.31 152.92 769.01 153.4 767.66 150.5C765.87 146.65 768.51 141.48 766.57 137.25C764.75 133.3 758.1 129.11 758.96 124.68C761.65 123.15 763.91 125.44 765.87 127.4C772.64 134.17 771.2 138.05 773.24 146.29ZM412.63 143.83C417.63 143.02 435.27 146.53 430.15 154.98C425.81 162.16 409.53 160.63 404.76 154.58C400.38 149.01 408 144.58 412.63 143.83ZM663.33 143.88C668.84 142.93 684.11 146.39 677.45 154.81C672.43 161.16 660.49 161.09 654.21 156.95C648.46 153.15 653.23 147.57 657.7 145.64C659.62 144.81 661.24 144.24 663.33 143.88ZM371.74 150.8C375.61 150.4 383.99 153.57 382.81 158.7C381.2 165.67 368.18 166.38 363.59 162.79C357.33 157.91 367.2 151.26 371.74 150.8ZM709.34 150.77C713.92 150.44 725.06 157.16 719.22 162.37C714.85 166.27 703.78 165.85 700.47 160.48C697.05 154.94 705 151.09 709.34 150.77ZM419.69 154.52C417.3 151.58 413.59 150.24 410.27 152.66C411.8 156.24 416.99 157.92 419.69 154.52ZM672.1 152.66C669.13 149.94 664.96 151.77 662.77 154.52C665.19 157.87 670.95 156.44 672.1 152.66ZM129.03 169.14C128.69 170.49 128.35 171.83 128.01 173.18C132.12 174.2 135.28 168.89 139.6 169.64C142.04 173.74 136.91 177.78 137.03 181.88C141.78 182.73 148.05 178.38 152.4 182.45C156.97 186.72 151.37 196.18 147.06 194.06C147.31 191.87 149.31 190.45 149.42 188.1C149.92 177.56 133.1 189.21 129.29 188.73C126.52 182.16 135.94 178.59 133.38 173.99C126.73 176.43 121.92 184.05 116.59 188.61C108.21 185.89 124.12 167.8 129.03 169.14ZM967.25 188.36C960.34 188.02 955.82 174.24 948.6 174.29C947.38 179.33 957.37 183.91 952.33 189.1C948.59 188.33 934.15 178.72 932.95 186.94C932.51 189.9 935.43 191.66 934.92 194.42C929.56 194.4 925.28 185.7 930.42 182.06C935.18 178.69 940.8 182.86 945.54 181.88C945.56 177.54 940.22 173.85 942.91 169.45C947.24 169.49 950.31 173.96 954.57 173.18C953.82 171.47 953.14 170.53 953.91 168.83C959.43 169.18 971.48 183.58 967.25 188.36ZM209.25 183.43C207.83 173.41 220.27 170.18 223.4 176.14C226.28 181.64 212.4 184.52 209.25 183.43ZM872.74 183.95C868.3 183.71 860.45 182.54 858.48 178.15C860.27 169.33 876.62 173.36 872.74 183.95ZM388.57 187.48C386.32 191.23 378.29 193.48 374.23 192.46C371.21 181.54 387.47 178.99 388.57 187.48ZM708.56 192.46C705.22 193.22 691.85 191.02 694.35 185.38C697.17 179.04 710.48 182.74 708.56 192.46ZM254.06 189.19C258.97 188.11 269.62 191.88 263.96 198.36C258.18 204.96 238.65 196.26 250.69 190.64C251.77 190.14 252.9 189.45 254.06 189.19ZM835.8 195.57C832.2 201.46 816.59 203.59 817.21 194.33C817.77 186.02 834.16 187.99 835.8 195.57ZM261.15 195.57C259.78 191.49 252.22 190.76 251.53 195.73C254.29 198.64 258.86 199.25 261.15 195.57ZM830.86 195.57C829.47 191.04 822.73 191.19 821.25 195.57C823.39 199.4 828.31 198.61 830.86 195.57ZM417.69 198.55C422.05 197.19 433.67 199.47 429.35 206.42C423.37 216.02 401.01 203.77 417.69 198.55ZM656.53 198.63C660.39 197.18 673.31 199.26 670.49 205.65C668.28 210.64 657.38 211 654 207.55C651 204.49 652.79 200.03 656.53 198.63ZM425.93 204.27C423.97 200.39 416.88 199.88 416.2 204.89C419.36 207.47 423.81 208.59 425.93 204.27ZM666.35 204.27C664.54 200.01 657.62 200.21 656.77 204.89C659.22 208 664.5 208.13 666.35 204.27ZM192.46 213.17C197.28 211.4 214.91 210.92 212.68 219.78C212.01 222.48 208.73 223 206.44 223.54C199.7 225.14 189.69 221.49 192.46 213.17ZM889.59 212.98C895.78 224.15 872.43 227.19 869.7 220.05C866.3 211.13 885.14 211.68 889.59 212.98ZM126.72 213.54C134.41 211.33 138.57 221.45 130.54 224.13C123.85 226.36 119.02 215.75 126.72 213.54ZM951.78 213.43C959.8 211.46 962.96 222.35 954.68 224.25C947.78 225.83 944.13 215.31 951.78 213.43ZM244.36 226.03C245.13 219.19 260.32 218.75 260.65 225.41C260.99 232.26 247.04 230 244.36 226.03ZM837.97 226.03C835.58 230.21 821.3 232.01 821.66 225.44C822.01 219 837.51 218.99 837.97 226.03ZM358.63 221.59C362.79 220.36 380.62 220.88 377.39 229.04C375.21 234.56 361.25 233.31 357.95 229.37C356.22 227.31 355.28 222.58 358.63 221.59ZM712.99 221.58C717.42 220.99 729.21 219.78 725.52 227.75C722.92 233.37 710.99 234.7 706.56 230.84C701 226 709.07 222.11 712.99 221.58ZM81.82 227.8C84.88 227.42 96.15 229.27 92.74 234.81C90.29 238.79 81.6 238.05 78.73 235C76.04 232.15 78.44 228.23 81.82 227.8ZM989.09 232.87C992.11 227.06 1005.75 225.23 1005.18 232.25C1004.67 238.58 991.03 239.43 989.09 232.87ZM408.73 234.74C411.23 228.67 425.41 227.66 425.36 234.74C425.31 241.86 411.54 238.6 408.73 234.74ZM673.74 234.74C670.74 238.41 657.33 242.01 657.21 234.74C657.09 227.54 671.29 228.7 673.74 234.74ZM397.32 252.77C394.95 257.4 386.19 256.84 383.51 252.77C385.06 247.23 396.15 246.72 397.32 252.77ZM698.65 253.4C695.13 256.63 684.44 257.92 685.42 250.91C688.93 247.96 698.69 247 698.65 253.4ZM266.5 258.17C270.87 257.01 284.19 259.62 279.01 266.89C275.9 271.25 264.84 271.46 261.42 267.45C258.03 263.46 262.74 259.16 266.5 258.17ZM808.22 258.29C812.9 256.94 826.52 259.83 821.07 267.32C819.93 268.88 818.27 269.18 816.49 269.58C812.98 270.39 808.28 270.6 805.12 268.45C800.01 264.97 803.42 259.66 808.22 258.29ZM168.27 259.99C172.4 258.54 190.42 259.24 187.45 267.38C185.37 273.12 171.67 271.72 168.2 268.02C166.51 266.22 165.02 261.14 168.27 259.99ZM234.12 264.48C231.07 269.18 223.62 267.9 219.98 264.59C221.7 258.69 232.64 258.24 234.12 264.48ZM862.39 264.59C858.93 268.18 851.55 268.82 848.47 264.59C849.41 258.15 860.97 258.67 862.39 264.59ZM915.56 260.86C917.74 268.91 909.62 271.36 903.21 271.13C900.5 271.03 896.08 270.5 895.13 267.37C892.48 258.64 911.48 258.19 915.56 260.86ZM275.18 262.72C271.55 259.4 265.26 260.41 265.11 265.83C268.16 268.91 275.82 267.9 275.18 262.72ZM816.96 266.45C817.94 260.33 811.23 259.59 807.26 262.72C806.57 268.13 813.24 267.96 816.96 266.45ZM433.82 267.06C438.4 266.94 449.16 270.51 442.94 276.61C439.16 280.31 428.43 280.41 425.42 275.66C422.25 270.68 430.09 267.16 433.82 267.06ZM645.96 267.07C650.13 266.85 661.09 269.25 656.84 275.99C653.9 280.63 642.09 280.27 638.94 276.08C635.13 271.04 641.7 267.28 645.96 267.07ZM440 272.67C437.74 267.31 428.28 269.23 430.32 275.78C433.83 276.85 439.41 277.29 440 272.67ZM652.12 275.78C654.22 269.37 646.54 268.67 642.66 271.73C641.76 277.17 648.36 277.14 652.12 275.78ZM124.76 273.14C132.01 271.22 136.28 281.09 128.66 283.8C121.57 286.32 116.72 275.28 124.76 273.14ZM954.25 273.09C961.96 271.22 965.28 281.95 957.12 283.91C949.83 285.67 946.33 275.02 954.25 273.09ZM363.54 274.92C368.49 273.02 380.47 278.4 375.53 285.02C372.85 288.6 363.42 287.58 361.71 283.41C360.86 281.35 360.99 275.9 363.54 274.92ZM719.77 275.37C720.89 277.63 721.56 281.69 720.23 284.01C718.1 287.72 709.68 288.42 707.12 284.99C701.62 277.66 714.63 273.28 719.77 275.37ZM91.04 292.57C89.15 299.51 74.54 298.12 75.32 291.35C76.11 284.45 88.82 287.81 91.04 292.57ZM999.12 287.56C1013.74 286.12 1005.07 301.8 994.21 296.36C987.66 293.08 995.01 287.97 999.12 287.56ZM230.68 303.76C227.2 308.17 220.39 307.12 216.44 303.76C218.35 298.07 229.51 297.25 230.68 303.76ZM865.93 303.76C862.56 307.1 852.75 308.82 851.99 302.52C854.53 297.46 864.38 298.26 865.93 303.76ZM405.93 305.63C402.13 308.31 395.11 309.57 392.29 305.01C393.44 298.51 407.03 298.25 405.93 305.63ZM690.18 305.01C687.38 309.01 677.2 309.42 676.09 303.76C679.1 298.99 689.04 298.56 690.18 305.01ZM258.99 314.33C259.24 307.47 275.06 307.49 275.29 313.73C275.52 320.24 261.33 318.64 258.99 314.33ZM823.43 314.33C820.76 318.44 806.77 320.45 807.14 313.71C807.48 307.5 822.6 307.44 823.43 314.33ZM163.42 309.97C171.31 309.31 173.12 319.91 165.1 321.04C157.57 322.09 155.15 310.66 163.42 309.97ZM917.66 309.96C925.62 309.41 926.63 320.17 918.75 321.06C911.12 321.92 909.52 310.53 917.66 309.96ZM349.16 341.63C352.67 345.22 352.59 351.32 357.48 354.18C361.62 356.6 366.34 355.38 370.74 354.78C382.38 353.2 393.43 348.3 405.12 346.91C411.08 346.2 417.24 345.43 423.15 344.41C425.91 343.93 429.44 342.86 431.61 344.8C426.44 349.1 413.91 348.68 406.99 349.45C393.17 350.97 373.05 361.4 359.53 358.45C354.43 357.33 349.51 353 348.13 347.93C347.47 345.52 346.24 342.5 349.16 341.63ZM734.69 341.62C738.41 350.28 726.61 358.55 719.15 358.8C704.16 359.31 690.2 351.29 675.62 349.46C668.88 348.61 655.68 348.77 650.74 344.8C654.11 342.09 662.63 345.03 666.91 345.33C679.63 346.22 691.91 350.21 704.25 353.04C708.83 354.08 713.76 355.89 718.52 355.8C723.27 355.7 727.13 353.3 729.48 349.24C731.06 346.5 731.18 342 734.69 341.62ZM511.45 359.64C509.04 363.01 501.1 364.56 498.82 360.35C499.59 354.75 509.32 355.1 511.45 359.64ZM583.91 359.73C581.69 364.26 573.75 363.52 571.09 359.73C572.73 354.39 581.51 355.6 583.91 359.73ZM557.76 364.7C554.97 368.52 547.16 369.71 544.97 364.7C547.14 360.51 556.03 359.85 557.76 364.7ZM459.88 368.43C462.28 363.65 475.84 360.13 476.64 367.29C477.24 372.55 461.7 374.8 459.88 368.43ZM621.84 370.3C617.91 373.82 607.05 373.11 605.62 367.19C609.23 360.23 624.19 363.69 621.84 370.3ZM533.37 381.49C535.65 376.6 549.2 372.5 550.21 379.69C551.01 385.49 536.57 387.16 533.37 381.49ZM424.14 377.76C428.19 375.28 446.42 375.77 444.66 383.96C444.03 386.92 440 387.97 437.46 388.17C431.06 388.67 421.21 386.31 424.14 377.76ZM658.34 377.76C661.32 386.18 651.5 388.61 645.15 388.2C642.57 388.03 638.51 387.03 637.94 383.95C636.36 375.59 654.01 375.43 658.34 377.76ZM596.02 383.62C597.83 391.31 581.83 392.83 579.82 386.47C581.99 380.38 591.82 379.47 596.02 383.62ZM503.46 386.4C511.28 385.42 513.95 395.88 505.84 397.39C498.58 398.74 495.47 387.41 503.46 386.4ZM320.04 392.68C319.71 399.27 309.49 397.68 306.01 394.55C306.57 388 316.64 389.24 320.04 392.68ZM382.25 390.14C389.83 388.97 393.1 399.11 385.19 401.07C378 402.86 374.21 391.38 382.25 390.14ZM697.51 390.13C705.36 388.93 707.81 399.33 699.85 401.08C692.48 402.69 689.33 391.38 697.51 390.13ZM776.35 394.11C773.72 398.41 763 398.87 762.4 392.68C765.43 389.83 775.98 387.6 776.35 394.11ZM550.67 391.43C558.9 391.09 559.19 402.55 551.25 402.55C543.74 402.55 542.68 391.76 550.67 391.43ZM469.83 392.68C477.43 392.84 478.12 403.25 470.41 403.73C462.22 404.23 461.37 392.52 469.83 392.68ZM613.37 392.68C621.58 393.55 619.2 404.53 611.57 403.69C603.7 402.83 605.8 391.89 613.37 392.68ZM422.16 413.83C420.14 418.84 410.02 418.68 408 413.83C410.64 408.83 419.68 408.7 422.16 413.83ZM674.17 414.45C671.7 418.31 664.58 418 661.13 415.69C658.61 408.5 673.11 408.26 674.17 414.45Z" fill="#181819" fill-rule="evenodd" stroke="#181819" stroke-width="0.25" stroke-linejoin="round"/>
</svg>